# xmcd
#
# Track frame offsets:
#	150
#	14412
#	34895
#	50337
#	71337
#	94362
#	115065
#	139985
#	155350
#	176490
#	199912
#	225272
#	254322
#
# Disc length: 3842 seconds
#
# Revision: 3
# Processed by: cddbd v1.5.2PL0 Copyright (c) Steve Scherf et al.
# Submitted via: audiograbber 1.83.01
#
DISCID=ab0f000d
DTITLE=Various Artist - High Endition Volume 5 - Blues
DYEAR=2001
DGENRE=Blues
TTITLE0=Blues Company, featuring The Fabulous B.C. Horns - My Little Angel
TTITLE1=Tommy Schneller Extravaganza - Blues For The Ladies
TTITLE2=Doug MacLeod - When I Left Missouri
TTITLE3=Toscho - Forgotten Mines
TTITLE4=Spencer Davis and Band featuring Bobby Crew - Sensitive Kind
TTITLE5=Eric Bibb - Rough Waters
TTITLE6=Clarence Spady - Picture Of Love
TTITLE7=Mighty Sam McClain - Mighty's Prayer
TTITLE8=Blues Company, featuring The Fabulous B.C. Horns - Run Your Fingers Thr
TTITLE8=ough My Hair
TTITLE9=Terry Evans - Don't Give Up
TTITLE10=Dave Van Ronk - Jesus Met The Woman At The Well
TTITLE11=Johnny Heartsman, featuring Blues Company - Comin' Home Baby
TTITLE12=Chris Farlowe, Roy Herrington - Ain't No Love
EXTD=
EXTT0=
EXTT1=
EXTT2=
EXTT3=
EXTT4=
EXTT5=
EXTT6=
EXTT7=
EXTT8=
EXTT9=
EXTT10=
EXTT11=
EXTT12=
PLAYORDER=
